<!-- <svg id="visual" viewBox="0 0 900 600" width="900" height="600" xmlns="http://www.w3.org/2000/svg" xmlns:xlink="http://www.w3.org/1999/xlink" version="1.1"><rect x="0" y="0" width="900" height="600" fill="#ffffff"></rect><defs><linearGradient id="grad1_0" x1="33.3%" y1="0%" x2="100%" y2="100%"><stop offset="20%" stop-color="#ffffff" stop-opacity="1"></stop><stop offset="80%" stop-color="#ffffff" stop-opacity="1"></stop></linearGradient></defs><defs><linearGradient id="grad2_0" x1="0%" y1="0%" x2="66.7%" y2="100%"><stop offset="20%" stop-color="#ffffff" stop-opacity="1"></stop><stop offset="80%" stop-color="#ffffff" stop-opacity="1"></stop></linearGradient></defs><g transform="translate(900, 0)"><path d="M0 486.7C-52 441.1 -104 395.4 -151.2 364.9C-198.3 334.5 -240.5 319.2 -294.9 294.9C-349.2 270.5 -415.7 236.9 -449.7 186.3C-483.7 135.6 -485.2 67.8 -486.7 0L0 0Z" fill="#6600FF"></path></g><g transform="translate(0, 600)"><path d="M0 -486.7C69.5 -486 139 -485.2 186.3 -449.7C233.5 -414.2 258.5 -343.8 294.2 -294.2C329.9 -244.5 376.3 -215.5 410.2 -169.9C444.1 -124.3 465.4 -62.2 486.7 0L0 0Z" fill="#6600FF"></path></g></svg> -->
<svg id="visual" viewBox="0 0 900 600" width="900" height="600" xmlns="http://www.w3.org/2000/svg" xmlns:xlink="http://www.w3.org/1999/xlink" version="1.1"><rect x="0" y="0" width="900" height="600" fill="#ffffff"></rect><defs><linearGradient id="grad1_0" x1="33.3%" y1="0%" x2="100%" y2="100%"><stop offset="20%" stop-color="#ffffff" stop-opacity="1"></stop><stop offset="80%" stop-color="#ffffff" stop-opacity="1"></stop></linearGradient></defs><defs><linearGradient id="grad2_0" x1="0%" y1="0%" x2="66.7%" y2="100%"><stop offset="20%" stop-color="#ffffff" stop-opacity="1"></stop><stop offset="80%" stop-color="#ffffff" stop-opacity="1"></stop></linearGradient></defs><g transform="translate(900, 0)"><path d="M0 486.7C-65.4 481.6 -130.7 476.5 -186.3 449.7C-241.8 422.9 -287.5 374.5 -326 326C-364.4 277.5 -395.7 228.8 -421.3 174.5C-446.9 120.2 -466.8 60.1 -486.7 0L0 0Z" fill="#6600FF"></path></g><g transform="translate(0, 600)"><path d="M0 -486.7C47.5 -445.3 95.1 -403.9 160.7 -388C226.4 -372.1 310.2 -381.8 344.2 -344.2C378.2 -306.6 362.4 -221.8 377.9 -156.5C393.3 -91.3 440 -45.6 486.7 0L0 0Z" fill="#6600FF"></path></g></svg>